# xmcd
#
# Track frame offsets:
#	150
#	9462
#	26301
#	45729
#	64202
#	77305
#	95228
#	108693
#	127659
#	139255
#	154014
#	167859
#	185466
#	205503
#	220098
#	231689
#
# Disc length: 3264 seconds
# Revision: 0
# Processed by: cddbd v1.5.2PL0 Copyright (c) Steve Scherf et al.
# Submitted via: dBpowerAMP V12.0
#
DISCID=d60cbe10
DTITLE=Judy Coder - Songcatcher
DYEAR=2011
DGENRE=Country
TTITLE0=Wringle Wrangle
TTITLE1=The Weaver (Dat So La Lee)
TTITLE2=Thunderheads
TTITLE3=Liberty Waltz
TTITLE4=What Jacob Reilly Saw
TTITLE5=She's In Love With Her Horse
TTITLE6=Arikaree Breaks
TTITLE7=Everything That Glitters (Is Not Gold)
TTITLE8=I Didn't Know the Gun Was Loaded
TTITLE9=He'd Be Home By Now
TTITLE10=Butterscotch Moon
TTITLE11=Cottonwood Waltz
TTITLE12=Red Buffalo
TTITLE13=Golden Slumbers
TTITLE14=When It Rains
TTITLE15=Silver Spurs
EXTD=
EXTT0=
EXTT1=
EXTT2=
EXTT3=
EXTT4=
EXTT5=
EXTT6=
EXTT7=
EXTT8=
EXTT9=
EXTT10=
EXTT11=
EXTT12=
EXTT13=
EXTT14=
EXTT15=
PLAYORDER=
